<svg width="1440" height="392" viewBox="0 0 1440 392" fill="none" xmlns="http://www.w3.org/2000/svg">
<path d="M-274.364 112.764L-147.511 43.046C-91.8435 12.4509 -22.5175 23.4829 20.9038 69.8464L74.225 126.78C128.33 184.551 219.683 185.552 275.041 128.981L350.423 51.9462C400.606 0.662653 481.576 -4.00041 537.315 41.1831L686.53 162.141C718.139 187.764 759.387 198.252 799.396 190.838L1013.08 151.24C1061.7 142.229 1111.26 161.394 1141.17 200.779V200.779C1180.08 252.021 1250.46 267.382 1307.19 237.012L1352.5 212.75C1399.42 187.631 1456.56 191.503 1499.66 222.72L1722.45 384.091" stroke="url(#paint0_linear_46_18)" stroke-width="18.5347"/>
<defs>
<linearGradient id="paint0_linear_46_18" x1="-231.943" y1="-45.5536" x2="1737.35" y2="302.941" gradientUnits="userSpaceOnUse">
<stop stop-color="#5534A5"/>
<stop offset="1" stop-opacity="0.1"/>
</linearGradient>
</defs>
</svg>
