<svg width="1440" height="696" viewBox="0 0 1440 696" fill="none" xmlns="http://www.w3.org/2000/svg">
<path d="M1685.35 5.99998L1601.87 124.254C1565.24 176.149 1498.09 196.61 1438.74 173.962L1365.87 146.15C1291.92 117.929 1209.36 157.059 1184.39 232.167L1150.39 334.444C1127.75 402.532 1057.01 442.203 987.112 426.013L799.982 382.67C760.342 373.489 718.669 382.137 685.955 406.332L511.232 535.559C471.471 564.967 418.53 569.453 374.388 547.156V547.156C316.957 518.147 246.958 535.181 209.278 587.335L179.176 629.001C148.01 672.139 94.9521 693.697 42.5313 684.522L-228.445 637.095" stroke="url(#paint0_linear_46_17)" stroke-width="18.5347"/>
<defs>
<linearGradient id="paint0_linear_46_17" x1="1716.59" y1="166.897" x2="-206.274" y2="716.566" gradientUnits="userSpaceOnUse">
<stop stop-color="#C38FFB"/>
<stop offset="1" stop-color="#C08FF8" stop-opacity="0.17"/>
</linearGradient>
</defs>
</svg>
